<?xml version="1.0" encoding="utf-8"?>
<!-- Generator: Adobe Illustrator 16.0.0, SVG Export Plug-In . SVG Version: 6.00 Build 0)  -->
<!DOCTYPE svg PUBLIC "-//W3C//DTD SVG 1.1//EN" "http://www.w3.org/Graphics/SVG/1.1/DTD/svg11.dtd">
<svg version="1.1" id="Layer_1" xmlns="http://www.w3.org/2000/svg" xmlns:xlink="http://www.w3.org/1999/xlink" x="0px" y="0px"
	 width="331.625px" height="182.052px" viewBox="0 0 331.625 182.052" enable-background="new 0 0 331.625 182.052"
	 xml:space="preserve">
<path fill="#FFC000" d="M87.152,79.33c-0.778-2.998-3.083-11.618-6.083-11.868c-0.429-0.036-1.333,0.459-1.75,1.083
	c-0.292,0.438,0.21,9.566,0.25,10.167c0.331,4.918,0.846,8.747,2.583,16l3.545,15.188c1.709,5.449,2.562,10.457,2.562,15.018
	c0,4.121-0.494,7.592-1.475,10.41c-0.984,2.822-3,5.086-6.045,6.795c-2.096,1.33-4.697,1.996-7.807,1.996
	c-1.586,0-2.697-0.049-3.332-0.143c-0.635-0.096-1.523-0.301-2.666-0.617c-1.969-0.383-3.873-1.082-5.711-2.094
	c-1.904-1.205-3.27-2.84-4.096-4.904c-0.824-2.062-1.236-4.488-1.236-7.283c0-1.141,0-2.283,0-3.426
	c0.189-1.078,0.316-1.869,0.383-2.381l0.574-4.662c0.51-2.031,1.607-7.431,5.178-16.188c3.572-8.758,4.208-14.875,5.042-20.208
	l0.416-2.333l1.751-11c-0.084-0.625-0.827-0.917-1.366-0.982c-2.885-0.352-5.968,7.83-5.968,7.83s-1.455,6.562-3.25,10.083
	c-0.83,1.627-2.473,2.87-4.688,3.111c-2.312,0.252-4.997-0.314-6.688-2.438c-0.729-0.916-1.776-2.866-2.041-3.944
	c-1.382-5.631-1.348-18.618,2.166-23.091c4.535-5.771,14.48-6.149,15.088-6.222c1.076-0.127,1.867-0.193,2.373-0.193h7.879H81
	c2.15,0,14.902-0.919,19.531,5.952c4.521,6.713,3.5,15.216,2.273,20.129c-0.299,1.191-1.014,3.557-1.561,4.655
	c-0.65,1.306-1.994,3.054-4.432,3.776c-1.742,0.517-3.879,0.297-5.16-0.371c-0.564-0.294-1.167-0.442-2.062-1.5
	C88.528,84.421,87.579,80.974,87.152,79.33z"/>
<path fill="#FFC000" d="M109.109,93.796v1.23c0.205,0.309,0.41,0.514,0.615,0.615l3.92-2.998c1.641-1.076,3.203-1.613,4.689-1.613
	h0.846c1.23,0.258,2.061,0.641,2.498,1.152c0.434,0.512,0.908,1.383,1.422,2.613l1.152,7.455c0,0.871-0.129,1.73-0.385,2.576
	s-0.807,1.666-1.652,2.459c-0.846,0.795-1.986,1.191-3.42,1.191c-0.719,0-1.41-0.127-2.074-0.385
	c-0.873-0.461-1.309-1.254-1.309-2.383l0.232-1.768l0.383-1.537c0-0.512-0.334-0.795-0.998-0.846c-0.719,0-1.32,0.396-1.807,1.191
	c-0.488,0.795-0.896,1.846-1.23,3.152c-0.334,1.305-0.5,2.574-0.5,3.803c0,2.514,0.795,5.689,2.383,9.533l5.305,12.682v1.229
	c0,2.461-0.945,4.141-2.836,5.035c-1.889,0.898-3.395,1.447-4.518,1.654l-3.676,0.305c-1.994,0-3.818-0.244-5.479-0.729
	c-1.66-0.486-3.027-1.217-4.098-2.189c-1.174-1.742-1.762-3.639-1.762-5.689c0-1.895,0.934-5.15,2.805-9.76
	c1.871-4.613,2.922-7.391,3.152-8.34s0.346-1.961,0.346-3.037c0-1.846-0.488-3.971-1.461-6.379l-1.691-3.691l-1.152-2.844
	c-0.307-0.973-0.514-1.945-0.615-2.92c0-0.82,0.217-1.525,0.654-2.115c0.434-0.586,1.217-1.037,2.344-1.344s2.074-0.461,2.844-0.461
	c1.127,0,2.152,0.258,3.074,0.768C108.035,91.927,108.699,92.722,109.109,93.796z"/>
<path fill="#FFC000" d="M147.843,94.249l0.23,1.844c0,1.23-0.566,3.205-1.691,5.92c-1.129,2.717-1.691,4.791-1.691,6.227v1.613
	c0,2.459,1.178,6.111,3.535,10.953c2.357,4.844,3.537,8.289,3.537,10.34c0,1.486-0.447,2.945-1.342,4.379
	c-0.893,1.436-2.463,2.768-4.711,3.998c-1.736,0.717-3.678,1.076-5.82,1.076c-2.912,0-5.338-0.643-7.279-1.922
	c-1.225-1.332-2.145-2.641-2.756-3.922c-0.205-0.562-0.385-1.229-0.537-1.996c-0.154-0.77-0.23-1.512-0.23-2.229
	c0-2.357,1.102-5.932,3.305-10.723s3.307-8.441,3.307-10.953v-1.613v-1.154c0-1.18-0.604-2.945-1.807-5.305
	c-1.205-2.355-1.807-4.021-1.807-4.994c0-0.719,0.217-1.396,0.65-2.037s1.287-1.318,2.562-2.037l2.754-0.309l2.83-0.23
	c1.531,0,2.881,0.23,4.055,0.691C146.109,92.329,147.078,93.124,147.843,94.249z M140.351,75.727c1.73,0,3.375,0.553,4.93,1.654
	s2.33,2.471,2.33,4.111c0,2.102-0.521,3.971-1.566,5.611s-2.408,2.459-4.09,2.459c-2.189,0-4.09-0.588-5.693-1.768
	c-1.605-1.18-2.408-2.768-2.408-4.766c0-1.846,0.598-3.523,1.795-5.035C136.845,76.484,138.414,75.727,140.351,75.727z"/>
<path fill="#FFC000" d="M188.578,97.468l0.768,2.158l0.309,2.234c0,0.773-0.154,1.543-0.463,2.314
	c-0.152,0.824-0.641,1.646-1.459,2.469c-0.82,0.822-1.717,1.463-2.691,1.928c-0.41,0.258-2.266,0.564-5.572,0.924
	c-3.305,0.359-5.342,1.645-6.109,3.855c0,2.264,1.152,5.975,3.459,11.141c2.305,5.166,3.459,8.982,3.459,11.451
	c0,0.873-0.385,1.631-1.154,2.271c-0.768,0.645-1.666,1.172-2.689,1.582l-4.766,0.461h-3.383c-1.947,0-3.562-0.152-4.842-0.461
	c-1.281-0.307-2.203-0.895-2.768-1.766s-0.973-1.846-1.229-2.922c-0.258-1.076-0.398-1.832-0.424-2.268s-0.037-0.781-0.037-1.037
	c0-1.332,0.152-2.676,0.461-4.035c0.307-1.357,0.818-2.807,1.537-4.344l3.229-6.842c0.768-1.637,1.152-3.227,1.152-4.764
	c0-1.742-0.859-4.521-2.574-8.34c-1.719-3.816-2.576-6.572-2.576-8.264c1.178-1.689,2.844-2.92,4.996-3.689
	c2.152-0.768,4.535-1.152,7.148-1.152c2.357,0,4.713,0.258,7.072,0.771c2.1,0.566,3.957,1.35,5.572,2.352
	C186.617,94.499,187.808,95.823,188.578,97.468z M173.05,97.446c-0.564,0.309-0.846,0.922-0.846,1.844l0.23,2.383l0.615,2.461
	c0.309,0.152,0.539,0.23,0.691,0.23c0.512,0,1-0.205,1.461-0.615l1.691-1.768c0.615-0.77,0.922-1.615,0.922-2.537l-0.23-0.922
	c-0.154-0.256-0.537-0.512-1.152-0.768l-2.076-0.309H173.05z"/>
<path fill="#FFC000" d="M222.472,97.581l0.768,2.16l0.309,2.234c0,0.771-0.154,1.543-0.463,2.312
	c-0.152,0.824-0.641,1.646-1.461,2.469c-0.82,0.824-1.717,1.465-2.689,1.928c-0.41,0.258-2.268,0.566-5.572,0.926
	s-5.342,1.645-6.109,3.855c0,2.262,1.152,5.975,3.457,11.141c2.307,5.166,3.459,8.982,3.459,11.449c0,0.875-0.385,1.631-1.152,2.273
	c-0.77,0.643-1.666,1.17-2.689,1.582l-4.766,0.461h-3.383c-1.947,0-3.562-0.152-4.842-0.461c-1.281-0.307-2.203-0.896-2.768-1.768
	s-0.975-1.844-1.23-2.922c-0.256-1.074-0.396-1.83-0.422-2.266c-0.027-0.436-0.039-0.781-0.039-1.037
	c0-1.334,0.154-2.678,0.461-4.037c0.309-1.355,0.82-2.805,1.539-4.342l3.227-6.842c0.77-1.639,1.154-3.229,1.154-4.764
	c0-1.742-0.859-4.523-2.576-8.34c-1.717-3.818-2.574-6.574-2.574-8.264c1.178-1.689,2.844-2.92,4.996-3.689s4.535-1.154,7.148-1.154
	c2.355,0,4.713,0.258,7.07,0.773c2.102,0.564,3.959,1.348,5.574,2.35C220.511,94.614,221.703,95.938,222.472,97.581z M206.945,97.56
	c-0.564,0.309-0.846,0.922-0.846,1.846l0.23,2.383l0.615,2.459c0.309,0.154,0.539,0.23,0.691,0.23c0.512,0,1-0.205,1.461-0.615
	l1.691-1.766c0.615-0.77,0.922-1.615,0.922-2.539l-0.23-0.922c-0.154-0.256-0.537-0.512-1.152-0.768l-2.076-0.309H206.945z"/>
<path fill="#FFC000" d="M238.929,66.049l0.789,4.482l0.264,5.004c0,4.834,0.701,7.246,2.109,7.246c0.525,0,1.184-0.68,1.975-2.039
	c0.791-1.363,1.494-3.627,2.109-6.789c0.613-3.162,1.053-5.311,1.316-6.457c0.266-1.139,0.727-2.26,1.383-3.359
	c0.66-1.096,5.982-6.107,8.268-6.988l3.953-0.395c2.195,0,4.041,0.377,5.535,1.123c1.492,0.744,2.238,1.908,2.238,3.49
	c0,2.197-5.15,8.59-7.742,11.139l-7.113,8.168c-1.074,1.406-1.971,3.471-2.686,6.193l-0.805,3.295v3.423
	c0,3.777,1.559,9.465,4.678,17.061c3.117,7.602,4.678,12.717,4.678,15.352c0,2.107-0.375,4.215-1.121,6.326
	c-0.748,2.105-1.998,4.129-3.756,6.061c-3.863,3.688-8.826,5.533-14.889,5.533c-3.338,0-6.236-0.527-8.695-1.582
	s-4.328-2.613-5.6-4.678c-1.273-2.062-2.219-4.148-2.832-6.258l-0.658-5.008c0-4.303,2.062-10.295,6.191-17.984
	c4.129-7.684,6.193-13.328,6.193-16.93c0-2.28-0.484-4.437-1.449-6.456c-0.705-1.932-1.824-3.688-3.359-5.27
	c-1.539-1.58-3.668-3.428-6.391-5.535c-2.725-2.107-7.871-9.029-7.871-11.227c0.086-1.402,0.701-2.766,1.844-4.082
	c1.141-1.318,2.459-2.109,3.953-2.373l4.48-0.527c2.107,0,3.951,0.395,5.533,1.186C233.033,57.984,238.05,64.115,238.929,66.049z"/>
<path fill="none" stroke="#F47A21" stroke-width="12" stroke-linecap="round" stroke-miterlimit="10" d="M268.869,75.727"/>
<g>
	<path fill="#F47A21" d="M214.525,81.567c0,0-0.168,0.02-0.496,0.059c-0.334,0.031-0.799,0.112-1.461,0.156
		c-1.377,0.063-3.346,0.213-5.961-0.156c-1.305-0.169-2.773-0.512-4.369-1.103c-1.596-0.574-3.316-1.545-4.887-2.988
		c-1.582-1.43-2.936-3.38-3.822-5.553c-0.111-0.273-0.225-0.548-0.338-0.824c-0.086-0.277-0.174-0.557-0.264-0.837
		c-0.084-0.283-0.17-0.568-0.256-0.855l-0.205-0.841l-0.168-0.713c-0.057-0.234-0.113-0.471-0.162-0.784
		c-0.098-0.584-0.211-1.189-0.289-1.783c-0.322-2.319-0.387-4.923,0.143-7.679c0.506-2.748,1.674-5.607,3.41-8.057
		c1.73-2.451,3.893-4.511,6.195-6.21l0.869-0.637l1.02-0.656c0.52-0.33,1.041-0.662,1.566-0.995l0.395-0.25
		c0.139-0.085,0.342-0.182,0.512-0.271l1.072-0.544c0.713-0.338,1.473-0.747,2.17-1.011c2.791-1.147,5.682-1.937,8.436-2.515
		c2.705-0.543,5.34-0.971,7.795-1.471l0.936-0.183l1.182-0.199l0.988-0.157c0.334-0.051,0.631-0.108,1.059-0.147l2.398-0.246
		l2.174-0.146c2.865-0.175,5.67-0.204,8.443-0.177c1.393,0.003,2.768,0.037,4.143,0.062c1.348,0.04,2.693,0.079,4.037,0.119
		c2.631,0.085,5.344,0.133,8.172,0.308c2.83,0.21,5.75,0.45,9.105,1.366c2.445,0.739,5.039,1.443,7.908,2.598l1.066,0.439l1.07,0.54
		l1.055,0.547l1.004,0.622c0.67,0.414,1.326,0.833,1.9,1.293c0.58,0.452,1.221,0.89,1.729,1.353
		c0.521,0.462,1.043,0.921,1.559,1.378l0.191,0.173l0.201,0.185l0.08,0.08l0.314,0.32l0.629,0.637
		c0.77,0.737,1.844,1.971,2.754,3.007c1.768,2.184,3.299,4.788,4.207,7.562c0.191,0.7,0.379,1.393,0.543,2.081
		c0.146,0.687,0.188,1.363,0.273,2.032l0.105,0.996l0.002,0.951c-0.006,0.626-0.012,1.247-0.02,1.86l-0.002,0.114
		c-0.029,0.759-0.012,0.237-0.021,0.419l-0.006,0.047l-0.029,0.187l-0.059,0.373l-0.121,0.739l-0.062,0.366
		c-0.014,0.108-0.08,0.351-0.121,0.519c-0.1,0.368-0.199,0.733-0.299,1.098c-0.109,0.357-0.219,0.713-0.328,1.065
		c-0.119,0.327-0.258,0.582-0.387,0.871c-0.271,0.553-0.508,1.128-0.814,1.625c-1.195,2.033-2.627,3.587-4.012,4.91
		c-2.844,2.564-5.672,4.052-8.066,5.066c-2.393,1.023-4.438,1.448-5.898,1.623c-0.375,0.027-0.707,0.052-0.992,0.072
		c-0.285,0.015-0.574-0.021-0.777-0.028c-0.42-0.031-0.635-0.048-0.635-0.048c-0.871-0.066-1.521-0.825-1.457-1.695
		c0.051-0.667,0.51-1.206,1.113-1.392l0.449-0.136c0,0,0.119-0.037,0.354-0.107c0.119-0.042,0.242-0.056,0.43-0.133
		c0.188-0.074,0.402-0.159,0.648-0.256c0.988-0.42,2.467-1.25,4.199-2.523c0.436-0.312,0.877-0.663,1.32-1.059
		c0.459-0.371,0.904-0.8,1.355-1.249c0.924-0.876,1.812-1.905,2.641-3.022c0.795-1.129,1.51-2.369,1.961-3.645
		c0.129-0.315,0.17-0.64,0.268-0.955c0.037-0.152,0.104-0.329,0.119-0.46c0-0.116,0.004-0.228,0.012-0.337
		c0.01-0.109,0.025-0.216,0.045-0.321c0.008-0.072,0.031-0.062,0.029-0.201l-0.002-0.371v-0.749l0.004-0.377l0.002-0.189V64.1
		c-0.008,0.149,0.016-0.402-0.016,0.324l-0.012-0.075c-0.211-1.621-0.529-3.168-1.176-4.458c-0.65-1.305-1.615-2.52-2.893-3.828
		c-0.713-0.617-1.199-1.146-2.232-1.964l-0.691-0.569l-0.348-0.286l-0.086-0.072c0.035,0.034-0.143-0.125,0.07,0.066l-0.039-0.028
		l-0.158-0.112c-0.414-0.307-0.83-0.613-1.248-0.923c-1.68-1.178-3.191-1.955-5.043-2.571c-1.861-0.636-4.27-1.169-6.842-1.793
		c-1.688-0.408-4.049-0.601-6.512-0.677c-5.219-0.131-10.52-0.265-15.82-0.398c-2.619-0.051-5.209-0.035-7.711,0.021l-1.844,0.065
		l-1.602,0.103c-0.24,0.003-0.602,0.059-0.928,0.099l-0.992,0.127l-0.494,0.062l-0.062,0.008c0.41-0.067,0.076-0.013,0.15-0.025
		l-0.127,0.02l-0.258,0.04l-1.029,0.15c-2.773,0.417-5.355,0.704-7.775,1.065c-2.363,0.358-4.484,0.777-6.428,1.415
		c-0.5,0.144-0.854,0.335-1.293,0.487l-0.637,0.229c-0.113,0.043-0.201,0.059-0.334,0.124l-0.416,0.214
		c-0.551,0.285-1.102,0.568-1.648,0.851L208.617,52l-0.205,0.105l-0.051,0.026c0.434-0.265,0.098-0.06,0.184-0.112l-0.08,0.05
		l-0.646,0.39c-1.705,1.047-3.156,2.173-4.264,3.393c-1.084,1.232-1.844,2.552-2.361,4.038c-0.504,1.485-0.732,3.145-0.764,4.854
		c-0.01,0.415,0.008,0.803,0.006,1.203c-0.008,0.18,0.014,0.429,0.037,0.678l0.061,0.729l0.029,0.361l0.014,0.181
		c-0.031-0.182-0.006-0.031-0.012-0.063l0.004,0.033l0.01,0.067l0.064,0.534L200.705,69l0.111,0.493
		c0.289,1.318,0.787,2.425,1.467,3.375c1.361,1.894,3.549,3.132,5.52,3.845c1.98,0.721,3.734,1.106,4.875,1.318
		c1.25,0.203,1.916,0.312,1.916,0.312c0.889,0.144,1.49,0.979,1.348,1.867C215.822,80.943,215.228,81.482,214.525,81.567z"/>
</g>
</svg>
