<?xml version="1.0" encoding="utf-8"?>
<!-- Generator: Adobe Illustrator 16.0.0, SVG Export Plug-In . SVG Version: 6.00 Build 0)  -->
<!DOCTYPE svg PUBLIC "-//W3C//DTD SVG 1.1//EN" "http://www.w3.org/Graphics/SVG/1.1/DTD/svg11.dtd">
<svg version="1.1" id="Layer_1" xmlns="http://www.w3.org/2000/svg" xmlns:xlink="http://www.w3.org/1999/xlink" x="0px" y="0px"
	 width="15.294px" height="16.682px" viewBox="251.795 273.116 15.294 16.682"
	 enable-background="new 251.795 273.116 15.294 16.682" xml:space="preserve">
<g id="_x36_LHOiZ.tif" display="none">
	
		<image display="inline" overflow="visible" enable-background="new    " width="895" height="976" id="Layer_0_1_" xlink:href="5D680D81930241E9.png"  transform="matrix(0.294 0 0 0.294 2.6812 3.0581)">
	</image>
</g>
<path d="M256.736,282.717c0,0-2.576,6.777,0.993,7.008c1.766,0.114,2.799,0.078,3.727,0c3.584-0.302,1.036-6.937,1.036-6.937
	L256.736,282.717z"/>
<path d="M262.096,273.574c-0.584-0.276-1.554-0.458-2.654-0.458c-1.099,0-2.069,0.182-2.653,0.458
	c-3.867,1.529-7.691,7.018-2.392,8.207c0.424,0.175,2.504,0.308,5.007,0.308c1.322,0,2.526-0.037,3.431-0.098
	c0.356-0.019,0.686-0.049,0.992-0.092c0.141-0.019,0.262-0.038,0.36-0.058C269.927,280.793,266.034,275.132,262.096,273.574z"/>
</svg>
