<?xml version="1.0" encoding="utf-8"?>
<!-- Generator: Adobe Illustrator 16.0.0, SVG Export Plug-In . SVG Version: 6.00 Build 0)  -->
<!DOCTYPE svg PUBLIC "-//W3C//DTD SVG 1.1//EN" "http://www.w3.org/Graphics/SVG/1.1/DTD/svg11.dtd">
<svg version="1.1" id="Layer_1" xmlns="http://www.w3.org/2000/svg" xmlns:xlink="http://www.w3.org/1999/xlink" x="0px" y="0px"
	 width="15.293px" height="16.682px" viewBox="0 0 15.293 16.682" enable-background="new 0 0 15.293 16.682" xml:space="preserve">
<g id="_x36_LHOiZ.tif" display="none">
	
		<image display="inline" overflow="visible" enable-background="new    " width="895" height="976" id="Layer_0_1_" xlink:href="5D680D81930241E9.png"  transform="matrix(0.294 0 0 0.294 2.6812 3.0588)">
	</image>
</g>
<path fill="#FFF200" stroke="#000000" stroke-miterlimit="10" d="M5.163,9.497c0,0-2.365,6.224,0.912,6.436
	c1.621,0.104,2.57,0.072,3.421,0c3.291-0.277,0.951-6.368,0.951-6.368L5.163,9.497z"/>
<path fill="#FFF200" stroke="#000000" stroke-miterlimit="10" d="M10.084,1.103C9.547,0.85,8.657,0.682,7.647,0.682
	c-1.01,0-1.9,0.168-2.438,0.421C1.659,2.507-1.853,7.546,3.015,8.638c0.391,0.16,2.299,0.283,4.598,0.283
	c1.212,0,2.32-0.035,3.148-0.091c0.328-0.018,0.631-0.045,0.912-0.085c0.129-0.017,0.24-0.034,0.33-0.053
	C17.274,7.732,13.7,2.534,10.084,1.103z"/>
</svg>
