<?xml version="1.0" encoding="utf-8"?>
<!-- Generator: Adobe Illustrator 16.0.0, SVG Export Plug-In . SVG Version: 6.00 Build 0)  -->
<!DOCTYPE svg PUBLIC "-//W3C//DTD SVG 1.1//EN" "http://www.w3.org/Graphics/SVG/1.1/DTD/svg11.dtd">
<svg version="1.1" id="Layer_1" xmlns="http://www.w3.org/2000/svg" xmlns:xlink="http://www.w3.org/1999/xlink" x="0px" y="0px"
	 width="15.294px" height="16.682px" viewBox="251.795 273.116 15.294 16.682"
	 enable-background="new 251.795 273.116 15.294 16.682" xml:space="preserve">
<g id="_x36_LHOiZ.tif" display="none">
	
		<image display="inline" overflow="visible" enable-background="new    " width="895" height="976" id="Layer_0_1_" xlink:href="5D680D81930241E9.png"  transform="matrix(0.294 0 0 0.294 2.6812 3.0581)">
	</image>
</g>
<path class="mush-color" fill="#ED1C24" stroke="#000000" stroke-miterlimit="10" d="M256.957,282.613c0,0-2.364,6.223,0.913,6.435
	c1.62,0.104,2.569,0.072,3.421,0c3.291-0.277,0.951-6.368,0.951-6.368L256.957,282.613z"/>
<path class="mush-color" fill="#ED1C24" stroke="#000000" stroke-miterlimit="10" d="M261.879,274.218c-0.537-0.253-1.427-0.421-2.437-0.421
	s-1.9,0.168-2.438,0.421c-3.55,1.404-7.062,6.443-2.195,7.535c0.39,0.16,2.299,0.283,4.597,0.283c1.214,0,2.32-0.035,3.149-0.09
	c0.328-0.018,0.63-0.045,0.912-0.085c0.129-0.017,0.24-0.035,0.331-0.053C269.069,280.847,265.495,275.65,261.879,274.218z"/>
</svg>
