<?xml version="1.0" encoding="utf-8"?>
<!-- Generator: Adobe Illustrator 16.0.0, SVG Export Plug-In . SVG Version: 6.00 Build 0)  -->
<!DOCTYPE svg PUBLIC "-//W3C//DTD SVG 1.1//EN" "http://www.w3.org/Graphics/SVG/1.1/DTD/svg11.dtd">
<svg version="1.1" id="Layer_1" xmlns="http://www.w3.org/2000/svg" xmlns:xlink="http://www.w3.org/1999/xlink" x="0px" y="0px"
	 width="268.25px" height="289.798px" viewBox="0 0 268.25 289.798" enable-background="new 0 0 268.25 289.798"
	 xml:space="preserve">
<g id="_x36_LHOiZ.tif" display="none">
	
		<image display="inline" overflow="visible" width="889" height="976" id="Layer_0_1_" xlink:href="3FF071E4FFCC71C0.png"  transform="matrix(0.2949 0 0 0.2949 3.1621 2.6182)">
	</image>
</g>
<path fill="#ED1C24" d="M87.25,151.404c0,0-44.75,132.473,17.25,136.973c30.677,2.228,48.62,1.53,64.75,0
	c62.25-5.906,18-135.566,18-135.566L87.25,151.404z"/>
<path fill="#ED1C24" d="M180.352,7.958C170.212,3.149,153.351,0,134.25,0c-19.097,0-35.955,3.148-46.095,7.955
	C20.97,34.534-45.461,129.857,46.618,150.515c7.353,3.044,43.491,5.354,86.966,5.354c22.966,0,43.884-0.646,59.594-1.702
	c6.184-0.311,11.922-0.846,17.236-1.589c2.455-0.317,4.557-0.651,6.267-1C316.402,133.376,248.768,35.029,180.352,7.958z"/>
</svg>
